<?xml version="1.0" encoding="utf-8"?>
<!-- Generator: Adobe Illustrator 22.0.1, SVG Export Plug-In . SVG Version: 6.00 Build 0)  -->
<svg version="1.1" id="レイヤー_1" xmlns="http://www.w3.org/2000/svg" xmlns:xlink="http://www.w3.org/1999/xlink" x="0px"
	 y="0px" viewBox="0 0 64 64" style="enable-background:new 0 0 64 64;" xml:space="preserve">
<style type="text/css">
	.st0{fill-rule:evenodd;clip-rule:evenodd;fill:#191313;}
</style>
<path class="st0" d="M32,1.1c-17.7,0-32,14.3-32,32c0,14.1,9.2,26.1,21.9,30.4c1.6,0.3,2.2-0.7,2.2-1.5c0-0.8,0-2.8,0-5.4
	c-8.9,1.9-10.8-4.3-10.8-4.3c-1.5-3.7-3.6-4.7-3.6-4.7c-2.9-2,0.2-1.9,0.2-1.9c3.2,0.2,4.9,3.3,4.9,3.3c2.9,4.9,7.5,3.5,9.3,2.7
	c0.3-2.1,1.1-3.5,2-4.3c-7.1-0.8-14.6-3.6-14.6-15.8c0-3.5,1.2-6.3,3.3-8.6c-0.3-0.8-1.4-4.1,0.3-8.5c0,0,2.7-0.9,8.8,3.3
	c2.6-0.7,5.3-1.1,8-1.1c2.7,0,5.5,0.4,8,1.1c6.1-4.1,8.8-3.3,8.8-3.3c1.7,4.4,0.6,7.7,0.3,8.5c2.1,2.2,3.3,5.1,3.3,8.6
	c0,12.3-7.5,15-14.6,15.8c1.1,1,2.2,2.9,2.2,5.9c0,4.3,0,7.7,0,8.8c0,0.9,0.6,1.9,2.2,1.5C54.8,59.2,64,47.3,64,33.1
	C64,15.4,49.7,1.1,32,1.1z"/>
</svg>
