<svg xmlns:xlink="http://www.w3.org/1999/xlink" xmlns="http://www.w3.org/2000/svg" viewBox="0 0 16 16" preserveAspectRatio="xMidYMid meet" focusable="false" class="style-scope yt-icon" style="pointer-events: none; display: block; width: 100%; height: 100%;" width="16"  height="16" ><g width="16" height="16" viewBox="0 0 16 16" class="style-scope yt-icon" fill="#FF0000"><path d="M10.65,1C10.65,1,10.65,1,10.65,1c-0.37,0-0.75,0.1-1.09,0.31L4.25,4.46C3.44,4.93,2.96,5.89,3,6.9  C3.05,7.9,3.58,8.77,4.39,9.18c0.02,0.01,0.75,0.35,0.75,0.35l-0.9,0.53c-1.14,0.68-1.58,2.27-0.98,3.55C3.69,14.49,4.5,15,5.35,15  c0.37,0,0.74-0.1,1.09-0.31l5.31-3.15c0.8-0.48,1.29-1.43,1.24-2.45c-0.04-0.99-0.58-1.87-1.39-2.27c-0.02-0.01-0.75-0.35-0.75-0.35  l0.9-0.53c1.14-0.68,1.58-2.27,0.97-3.55C12.31,1.51,11.49,1,10.65,1L10.65,1z" class="style-scope yt-icon" fill="#FF0000"></path></g></svg>